<svg version="1.1" id="Layer_1" xmlns="http://www.w3.org/2000/svg" xmlns:xlink="http://www.w3.org/1999/xlink" x="0px" y="0px"
	 width="100%" viewBox="0 0 1024 1024" enable-background="new 0 0 1024 1024" xml:space="preserve">
<path fill="#000000" opacity="1.000000" stroke="none" 
	d="
M551.986267,524.790527 
	C541.292786,544.049194 523.980652,551.087402 503.577881,551.980896 
	C490.771667,552.541687 477.921204,552.052185 465.091187,552.132874 
	C461.149109,552.157654 459.414673,551.329407 460.395294,546.616821 
	C465.949524,519.924805 471.175385,493.164520 476.498871,466.424652 
	C476.957642,464.120209 477.062164,461.589630 480.400696,461.684845 
	C495.700653,462.121216 511.092438,460.287689 526.295776,462.691040 
	C548.434631,466.190765 560.628357,483.289764 557.656555,505.408264 
	C556.758972,512.088623 555.288147,518.481873 551.986267,524.790527 
M480.581665,534.494446 
	C480.727173,537.020325 482.665833,536.716248 484.266602,536.719360 
	C491.765717,536.733704 499.285461,537.024475 506.759979,536.579651 
	C523.221802,535.600037 535.548828,524.897827 539.290344,508.845367 
	C543.395874,491.231171 535.610046,479.680328 517.965698,476.990875 
	C510.987671,475.927246 503.986572,476.750000 497.013275,476.339996 
	C493.237610,476.118073 491.861816,477.690735 491.167267,481.352997 
	C487.850708,498.840820 484.227448,516.270447 480.581665,534.494446 
z"/>
<path fill="#000000" opacity="1.000000" stroke="none" 
	d="
M632.154785,547.357056 
	C624.470764,550.571350 616.740417,551.883850 608.898560,552.039429 
	C596.075745,552.293701 583.242371,551.987305 570.417358,552.179626 
	C565.913147,552.247192 565.013489,550.445801 565.829651,546.414551 
	C571.206238,519.860229 576.502197,493.289368 581.744507,466.708160 
	C582.408630,463.340698 583.579895,461.493378 587.564148,461.576416 
	C599.887024,461.833221 612.220764,461.533997 624.545898,461.730164 
	C642.648010,462.018280 658.051392,472.339111 661.875000,487.291382 
	C666.963196,507.188690 660.331421,531.997559 638.794678,544.150879 
	C636.769226,545.293884 634.616638,546.211548 632.154785,547.357056 
M645.027527,494.549072 
	C642.851562,484.765472 636.063904,478.894165 625.589722,477.250214 
	C617.803406,476.028076 609.992371,476.670013 602.199524,476.332031 
	C598.556702,476.174072 597.296936,477.838715 596.661133,481.092590 
	C593.351135,498.030884 589.906433,514.942871 586.492676,531.860779 
	C585.834045,535.124878 586.629028,536.906860 590.449707,536.786438 
	C596.763611,536.587463 603.088562,536.777466 609.407349,536.691345 
	C632.386841,536.378357 648.151062,518.175049 645.027527,494.549072 
z"/>
<path fill="#000000" opacity="1.000000" stroke="none" 
	d="
M788.440063,425.606995 
	C790.813843,430.040741 793.007202,434.151978 795.201050,438.263031 
	C796.547974,440.787018 795.771790,442.313354 793.063538,443.107178 
	C777.111572,447.782959 761.175049,452.512024 745.218323,457.171539 
	C742.134155,458.072144 740.661560,456.517395 740.964172,453.551025 
	C741.892456,444.452240 742.951050,435.366211 744.027161,426.283325 
	C744.381897,423.289490 746.914551,422.386200 749.230164,421.477661 
	C756.487671,418.630280 763.780640,415.873199 770.895630,412.373657 
	C764.386780,413.530487 757.878235,414.689270 751.368835,415.843567 
	C746.291992,416.743774 741.182617,417.494171 736.149841,418.595184 
	C733.554810,419.162872 731.504150,418.537811 729.740967,416.842133 
	C713.303223,401.033112 696.891357,385.197083 680.505127,369.334625 
	C679.605347,368.463654 678.376038,367.621307 678.815613,365.263336 
	C682.893188,366.238861 686.968384,367.108032 690.985596,368.192169 
	C716.348938,375.037048 741.693176,381.952271 767.062256,388.775726 
	C769.979370,389.560364 771.353882,391.569519 772.584961,394.054565 
	C777.755371,404.491577 783.026001,414.878937 788.440063,425.606995 
z"/>
<path fill="#000000" opacity="1.000000" stroke="none" 
	d="
M364.527527,474.692841 
	C373.258179,492.086945 366.084167,512.537415 348.595215,520.990417 
	C342.667053,523.855652 342.677948,523.849670 345.790497,529.449402 
	C349.653625,536.399353 353.496429,543.360596 357.340393,550.303162 
	C349.629181,554.717834 339.802856,552.299622 335.878815,545.400818 
	C332.917389,540.194336 329.988251,534.969482 327.008820,529.773376 
	C326.271484,528.487427 325.654266,526.725586 324.125732,526.490112 
	C317.698639,525.500122 311.208954,525.523010 304.779724,526.396118 
	C302.942932,526.645569 302.730499,528.837036 302.413025,530.452698 
	C301.324890,535.991150 300.169220,541.521301 299.292786,547.094482 
	C298.733643,550.650146 297.139099,552.143372 293.378265,552.215698 
	C280.402008,552.465271 280.321747,552.570496 282.793274,540.087769 
	C287.663330,515.490906 292.639038,490.915039 297.556610,466.327606 
	C297.979645,464.212524 297.981384,461.662354 301.012024,461.732056 
	C315.959961,462.075897 330.983887,460.325531 345.843079,462.790131 
	C353.437775,464.049805 359.999451,467.593018 364.527527,474.692841 
M344.473358,505.004028 
	C345.155151,504.276337 345.923462,503.611572 346.505463,502.811340 
	C352.922546,493.988098 352.863159,478.634430 336.261505,476.922791 
	C329.766113,476.253143 323.306427,476.554993 316.830017,476.446594 
	C315.058655,476.416901 313.448181,476.852509 313.024567,478.904053 
	C310.885681,489.263184 308.776276,499.628357 306.495911,510.776642 
	C314.273041,510.776642 321.209503,510.778198 328.145966,510.776184 
	C333.996643,510.774475 339.266296,509.035706 344.473358,505.004028 
z"/>
<path fill="#000000" opacity="1.000000" stroke="none" 
	d="
M439.746155,498.679504 
	C441.678467,498.772369 443.232697,498.475342 444.607697,499.746857 
	C444.968628,503.366180 443.551270,506.829712 442.964966,510.395630 
	C442.510529,513.159729 440.272217,513.335510 437.962006,513.328613 
	C426.803528,513.295166 415.642517,513.448486 404.487488,513.250183 
	C400.533295,513.179871 398.412048,514.014160 397.918854,518.488342 
	C397.270447,524.371033 395.306396,530.085205 394.876617,536.198608 
	C398.394684,537.306458 401.734558,536.768921 405.007507,536.790894 
	C416.498688,536.867981 427.991760,536.911377 439.481812,536.773865 
	C443.565704,536.724976 444.720917,538.184082 443.924744,542.200806 
	C441.963928,552.093384 442.093262,552.125854 431.948181,552.124695 
	C414.793884,552.122742 397.639618,552.120117 380.485321,552.099121 
	C373.977814,552.091187 373.725159,551.796631 374.937836,545.723938 
	C380.208862,519.328857 385.502686,492.938263 390.757385,466.539886 
	C391.313263,463.747192 391.980682,461.586670 395.667969,461.610565 
	C415.319427,461.738007 434.972168,461.668030 454.624420,461.692780 
	C455.415710,461.693756 456.206665,461.960968 457.141907,462.130219 
	C457.919952,466.412079 456.373688,470.167511 455.488281,473.976227 
	C454.803864,476.920349 452.222412,476.321228 450.149292,476.327759 
	C437.491882,476.367645 424.830933,476.513092 412.178619,476.256378 
	C407.862000,476.168762 405.752350,477.456696 405.254028,481.865997 
	C404.788727,485.982941 403.987518,490.104767 402.864807,494.092316 
	C401.760284,498.015320 403.422516,498.733063 406.802979,498.704437 
	C417.627777,498.612854 428.453827,498.675354 439.746155,498.679504 
z"/>
<path fill="#000000" opacity="1.000000" stroke="none" 
	d="
M693.915527,543.199829 
	C695.429443,535.778442 696.779114,528.758362 698.313477,521.778870 
	C698.757629,519.758850 697.908630,518.198181 697.236938,516.530090 
	C690.642944,500.154938 684.013489,483.794037 677.436035,467.412292 
	C676.778931,465.775757 675.518066,464.234863 676.379395,461.544128 
	C680.969177,461.544128 685.746338,461.553467 690.523560,461.540527 
	C693.218384,461.533234 693.595764,463.785034 694.315735,465.549042 
	C698.783630,476.495392 703.152161,487.482269 707.626831,498.425781 
	C708.294678,500.059204 708.545532,501.990997 710.630493,503.436432 
	C712.742554,500.939972 714.898560,498.482788 716.955017,495.944946 
	C725.032227,485.976868 733.221008,476.093658 741.053162,465.935974 
	C743.582764,462.655304 746.293640,461.259827 750.338257,461.536652 
	C754.249512,461.804352 758.193481,461.594635 762.786804,461.594635 
	C760.294067,466.583282 756.962463,469.858276 754.128662,473.442535 
	C742.867859,487.685364 731.687683,502.004120 719.992737,515.886230 
	C714.247986,522.705322 714.820618,531.105225 712.464294,538.765625 
	C712.270996,539.393982 712.324951,540.094360 712.175537,540.740845 
	C709.215576,553.550903 712.004517,551.961426 697.924316,552.174011 
	C693.833496,552.235718 691.794067,551.003540 693.355347,546.570679 
	C693.681091,545.645996 693.674866,544.604309 693.915527,543.199829 
z"/>
<path fill="#000000" opacity="1.000000" stroke="none" 
	d="
M799.745544,436.439392 
	C796.723877,438.395172 796.369751,435.932587 796.044006,434.359131 
	C794.293335,425.901733 792.729248,417.405853 791.081055,408.927124 
	C790.565247,406.274017 792.167480,404.964935 794.155029,403.826385 
	C798.597473,401.281555 803.022644,398.706726 807.334656,395.837860 
	C803.377502,396.667328 799.661255,398.488007 794.502319,398.264252 
	C796.114258,391.686371 800.328613,388.323853 805.327332,385.697510 
	C814.118652,381.078430 823.094971,380.128510 832.688416,384.335999 
	C831.159119,388.025116 827.906860,387.854156 825.459351,388.680481 
	C822.727661,389.602722 821.095032,391.075226 819.741882,393.659637 
	C812.483398,407.523407 806.431885,421.938446 799.745544,436.439392 
z"/>
<path fill="#000000" opacity="1.000000" stroke="none" 
	d="
M465.093689,619.976685 
	C468.439362,627.917053 472.475769,635.166382 475.131744,643.216858 
	C470.657379,645.070007 467.543854,644.495911 466.108673,639.970581 
	C465.133667,636.896240 463.128387,635.871277 460.080414,636.024597 
	C457.426392,636.158142 454.751709,636.151672 452.099731,635.987549 
	C448.687531,635.776550 446.312317,636.876404 445.270020,640.349487 
	C443.980499,644.646484 440.939026,644.722473 437.609863,643.703003 
	C436.709534,642.491150 437.007538,641.527710 437.420959,640.611084 
	C441.932129,630.609863 446.478638,620.624390 450.966858,610.612915 
	C451.894043,608.544617 453.293823,607.633179 455.606964,607.639648 
	C457.987366,607.646240 459.821991,608.171021 460.841125,610.536560 
	C462.156677,613.590027 463.569763,616.601562 465.093689,619.976685 
M451.000397,627.828735 
	C453.847992,631.540588 457.170837,629.225830 460.768524,629.052246 
	C459.812683,624.653076 458.423981,621.099060 455.914978,617.545959 
	C453.364410,620.614563 452.458954,623.984497 451.000397,627.828735 
z"/>
<path fill="#000000" opacity="1.000000" stroke="none" 
	d="
M612.192749,643.823364 
	C600.717834,645.198486 594.134521,641.641785 592.102417,633.325134 
	C590.180359,625.458801 595.203491,617.431396 603.015686,615.885010 
	C611.154724,614.273865 618.717041,618.995605 620.117432,626.585815 
	C620.798462,630.277100 620.201477,632.727234 615.475342,632.446716 
	C610.384216,632.144470 605.261292,632.378296 599.458008,632.378296 
	C602.114014,638.090515 606.187439,638.448547 610.316589,637.357544 
	C613.262207,636.579224 616.460388,634.534607 617.662537,638.746460 
	C618.636597,642.159302 614.801147,642.507568 612.192749,643.823364 
M600.323914,625.138794 
	C602.459717,627.496399 606.980164,627.830383 611.955383,625.998291 
	C609.550537,621.152588 605.418823,620.615540 600.323914,625.138794 
z"/>
<path fill="#000000" opacity="1.000000" stroke="none" 
	d="
M558.887085,615.929871 
	C563.118652,616.858704 566.810425,616.503296 570.741333,615.890076 
	C578.994751,614.602661 584.117554,619.435913 584.293213,627.836975 
	C584.380310,632.000916 584.276794,636.168518 584.290955,640.334412 
	C584.298889,642.671753 583.509094,644.136963 580.857544,644.181824 
	C578.132202,644.227844 576.845276,643.017883 576.838196,640.318420 
	C576.827759,636.319275 576.820801,632.319397 576.740967,628.321350 
	C576.664490,624.492432 574.606262,622.417725 570.820007,622.382446 
	C567.136230,622.348083 564.715881,624.299500 564.394775,627.995789 
	C564.064026,631.802917 564.204163,635.652710 564.179749,639.484131 
	C564.163635,642.015991 563.863037,644.143555 560.516479,644.208618 
	C557.279114,644.271484 556.637512,642.483093 556.665649,639.764526 
	C556.733032,633.266296 556.661133,626.766663 556.701904,620.268005 
	C556.712097,618.651306 556.445312,616.829590 558.887085,615.929871 
z"/>
<path fill="#000000" opacity="1.000000" stroke="none" 
	d="
M638.171570,626.930054 
	C640.793213,627.627991 643.088806,628.094177 645.267883,628.882324 
	C648.264221,629.966064 649.654053,632.402771 649.775146,635.466736 
	C649.888977,638.349182 648.614014,640.681396 646.090210,642.107300 
	C640.104980,645.488953 633.951904,644.923645 627.806274,642.583130 
	C625.989685,641.891357 625.204773,640.575928 626.075867,638.612854 
	C626.920044,636.710571 627.997314,635.729675 630.339417,636.584106 
	C634.297791,638.028320 638.374878,639.258850 642.464661,636.052734 
	C639.818909,632.720764 636.298828,633.350281 633.385803,632.556763 
	C629.078064,631.383301 625.854675,629.326721 625.901001,624.566162 
	C625.946106,619.941467 629.011658,617.404846 633.264160,616.277100 
	C637.220764,615.227905 641.174316,615.449646 645.081421,616.639648 
	C646.861267,617.181763 648.916565,617.596252 648.045654,620.207397 
	C647.354004,622.281006 646.183105,623.505249 643.544312,622.846741 
	C640.282104,622.032654 636.803711,620.906799 633.743347,623.639587 
	C634.093689,626.260010 636.093079,626.354065 638.171570,626.930054 
z"/>
<path fill="#000000" opacity="1.000000" stroke="none" 
	d="
M522.006653,634.931763 
	C522.005676,626.485840 521.980469,618.530273 522.011047,610.574890 
	C522.020874,608.020081 522.026794,605.579529 525.785278,605.515625 
	C529.777466,605.447815 529.320984,608.066101 529.323975,610.541443 
	C529.335083,619.822937 529.350098,629.104431 529.318237,638.385803 
	C529.308838,641.122925 530.012329,644.392761 525.457703,644.208923 
	C521.276489,644.040161 522.125305,640.931824 521.984436,638.404724 
	C521.929138,637.414001 521.993896,636.416565 522.006653,634.931763 
z"/>
<path fill="#000000" opacity="1.000000" stroke="none" 
	d="
M508.298950,624.383301 
	C505.860016,626.714966 505.981903,629.431763 505.922943,632.081177 
	C505.856445,635.066284 505.953735,638.058594 505.787018,641.036926 
	C505.623444,643.959534 503.521973,644.288208 501.148987,644.188660 
	C498.652893,644.084045 498.218811,642.516174 498.259003,640.466797 
	C498.395630,633.501404 498.571594,626.535767 498.595245,619.569702 
	C498.607483,615.963562 501.157684,614.709961 503.395752,616.123474 
	C506.037903,617.792236 507.790100,616.963684 510.078064,616.192078 
	C511.942261,615.563354 514.248962,614.996216 514.972229,617.763550 
	C515.562439,620.021667 515.221191,622.048523 512.241577,622.590637 
	C510.977295,622.820618 509.813110,623.600769 508.298950,624.383301 
z"/>
<path fill="#000000" opacity="1.000000" stroke="none" 
	d="
M481.324677,642.326294 
	C481.068298,634.614624 480.976471,627.315308 480.920593,620.015686 
	C480.901947,617.579712 481.649567,615.833618 484.572357,615.783325 
	C487.830688,615.727295 488.364594,617.644043 488.339081,620.301575 
	C488.278503,626.611206 488.383392,632.922607 488.297119,639.231628 
	C488.224030,644.579468 486.579529,645.385071 481.324677,642.326294 
z"/>
<path fill="#000000" opacity="1.000000" stroke="none" 
	d="
M546.561829,617.691345 
	C546.809265,625.237793 546.920837,632.365967 546.965332,639.494629 
	C546.980835,641.979126 546.575989,644.151123 543.260254,644.196655 
	C539.909973,644.242615 539.577209,642.186707 539.596497,639.608093 
	C539.643555,633.301758 539.543884,626.993652 539.642761,620.688477 
	C539.725830,615.387573 541.548584,614.514648 546.561829,617.691345 
z"/>
<path fill="#000000" opacity="1.000000" stroke="none" 
	d="
M545.836853,604.844604 
	C548.146973,607.325928 548.080444,609.623657 545.763367,611.471130 
	C544.084473,612.809753 542.022522,612.706726 540.293701,611.314697 
	C538.694214,610.026733 538.249695,608.239075 539.275085,606.460327 
	C540.709656,603.971558 542.834656,603.170898 545.836853,604.844604 
z"/>
<path fill="#000000" opacity="1.000000" stroke="none" 
	d="
M480.600342,607.307739 
	C482.065033,603.998535 484.248718,603.073364 487.135773,604.707764 
	C488.903412,605.708374 489.666260,607.424438 488.879456,609.396790 
	C487.956177,611.711304 486.058289,612.664062 483.649261,612.115295 
	C481.390289,611.600708 480.407166,609.974121 480.600342,607.307739 
z"/>
</svg>